<svg class="icon" viewBox="0 0 1024 1024" xmlns="http://www.w3.org/2000/svg" width="128" height="128"><path d="M926.476 355.645V780.19a73.143 73.143 0 0 1-73.143 73.143H170.667a73.143 73.143 0 0 1-73.143-73.143V355.645l304.103 257.829a170.667 170.667 0 0 0 220.746 0l304.103-257.829zm-73.143-184.978a74.045 74.045 0 0 1 26.088 4.778 72.704 72.704 0 0 1 30.622 22.187 73.509 73.509 0 0 1 10.68 17.676 72.773 72.773 0 0 1 5.607 24.21l.146 4.292v24.38L559.47 581.242a73.143 73.143 0 0 1-91.307 2.901l-3.633-2.925L97.524 268.19v-24.38a72.899 72.899 0 0 1 40.155-65.293 72.972 72.972 0 0 1 32.988-7.85h682.666z"/></svg>