<svg class="icon" viewBox="0 0 1024 1024" xmlns="http://www.w3.org/2000/svg" width="128" height="128"><path d="M829.45 126.77h-641a64.19 64.19 0 0 0-64 64v63.49a64.19 64.19 0 0 0 64 64h641a64.19 64.19 0 0 0 64-64v-63.49a64.19 64.19 0 0 0-64-64zM477.71 257H221.54a32 32 0 0 1 0-64h256.17a32 32 0 1 1 0 64zm191.91 0a32 32 0 1 1 32-32 32.09 32.09 0 0 1-32 32zm128.68 0a32 32 0 1 1 32-32 32.09 32.09 0 0 1-32 32zM831 416.72H190a64.19 64.19 0 0 0-64 64v63.49a64.19 64.19 0 0 0 64 64h641a64.19 64.19 0 0 0 64-64v-63.49a64.19 64.19 0 0 0-64-64zM479.24 547H223.07a32 32 0 1 1 0-64h256.17a32 32 0 0 1 0 64zm191.91 0a32 32 0 1 1 32-32 32.09 32.09 0 0 1-32 32zm128.68 0a32 32 0 1 1 32-32 32.09 32.09 0 0 1-32 32zM831 703.77H190a64.19 64.19 0 0 0-64 64v63.49a64.19 64.19 0 0 0 64 64h641a64.19 64.19 0 0 0 64-64v-63.49a64.19 64.19 0 0 0-64-64zM479.24 834H223.07a32 32 0 1 1 0-64h256.17a32 32 0 0 1 0 64zm191.91 0a32 32 0 1 1 32-32 32.09 32.09 0 0 1-32 32zm128.68 0a32 32 0 1 1 32-32 32.09 32.09 0 0 1-32 32z"/></svg>