<svg class="icon" viewBox="0 0 1024 1024" xmlns="http://www.w3.org/2000/svg" width="200" height="200"><defs><style>@font-face{font-family:feedback-iconfont;src:url(//at.alicdn.com/t/font_1031158_u69w8yhxdu.woff2?t=1630033759944) format(&quot;woff2&quot;),url(//at.alicdn.com/t/font_1031158_u69w8yhxdu.woff?t=1630033759944) format(&quot;woff&quot;),url(//at.alicdn.com/t/font_1031158_u69w8yhxdu.ttf?t=1630033759944) format(&quot;truetype&quot;)}</style></defs><path d="M492.642 544.492c138.577 0 250.923-112.345 250.923-250.924 0-138.577-112.345-250.922-250.923-250.922S241.718 154.991 241.718 293.569s112.346 250.923 250.924 250.923M822.31 696.72c-58.855-62.074-78.651-83.382-186.462-89.233h-286.42c-107.81 5.852-127.607 27.16-186.462 89.232-62.51 64.17-112.295 145.404-88.695 246.144 26.185 65.876 96.936 81.138 163.836 81.138h509.062c66.9 0 137.7-15.262 163.886-81.138 23.6-100.74-26.186-181.975-88.745-246.144"/></svg>